<svg width="147" height="31" viewBox="0 0 147 31" fill="none" xmlns="http://www.w3.org/2000/svg">
<path d="M141.71 23.0009C141.208 25.3927 140.711 27.7648 140.217 30.1172C137.406 30.3996 134.591 30.6938 131.771 31C129.039 30.9926 126.308 30.9856 123.576 30.9791C122.801 28.0529 122.032 25.1099 121.27 22.1501C120.838 19.0106 120.418 15.8694 120.01 12.7265C127.929 13.2945 135.921 13.3347 143.985 12.8472C143.191 16.3512 142.433 19.7357 141.71 23.0009Z" fill="#416A1A"/>
<path d="M141.71 23.0009C141.208 25.3927 140.711 27.7648 140.217 30.1172C137.406 30.3996 134.591 30.6938 131.771 31C129.039 30.9926 126.308 30.9856 123.576 30.9791C122.801 28.0529 122.032 25.1099 121.27 22.1501C120.838 19.0106 120.418 15.8694 120.01 12.7265C127.929 13.2945 135.921 13.3347 143.985 12.8472C143.191 16.3512 142.433 19.7357 141.71 23.0009Z" fill="#D5F05F"/>
<path d="M123.304 3C128.969 3.15595 134.539 3.17196 140.016 3.04802C142.063 5.77636 144.391 8.60114 147 11.5224C137.364 11.0143 127.364 10.9893 117 11.4473C119.285 8.48828 121.386 5.67253 123.304 3Z" fill="#416A1A"/>
<path d="M123.304 3C128.969 3.15595 134.539 3.17196 140.016 3.04802C142.063 5.77636 144.391 8.60114 147 11.5224C137.364 11.0143 127.364 10.9893 117 11.4473C119.285 8.48828 121.386 5.67253 123.304 3Z" fill="#D5F05F"/>
<path fill-rule="evenodd" clip-rule="evenodd" d="M132.721 18.6019C132.406 18.1105 131.618 18.1105 131.302 18.6019L130.845 19.3152C130.781 19.4167 130.764 19.5369 130.798 19.6496C130.832 19.7623 130.914 19.8583 131.026 19.9166C131.139 19.975 131.272 19.991 131.398 19.9612C131.523 19.9314 131.63 19.8581 131.696 19.7574L132.012 19.2651L132.739 20.3988C132.624 20.4086 132.517 20.4544 132.436 20.5282C132.355 20.602 132.305 20.6991 132.296 20.8025C132.286 20.9059 132.317 21.009 132.384 21.0938C132.45 21.1786 132.548 21.2396 132.659 21.2662L133.608 21.495C133.679 21.5126 133.754 21.5154 133.827 21.5031C133.899 21.4907 133.968 21.4637 134.027 21.4239C134.117 21.3644 134.18 21.2825 134.21 21.1822L134.464 20.3283C134.494 20.2282 134.484 20.1218 134.436 20.0278C134.387 19.9337 134.304 19.858 134.2 19.8137C134.095 19.7695 133.977 19.7596 133.866 19.7858C133.754 19.8119 133.657 19.8725 133.59 19.9569L132.721 18.6019ZM128.75 22.5812L129.619 21.2265C129.504 21.2166 129.397 21.1708 129.316 21.097C129.235 21.0232 129.185 20.9261 129.176 20.8227C129.166 20.7193 129.197 20.6162 129.264 20.5314C129.33 20.4466 129.428 20.3856 129.539 20.359L130.488 20.1302C130.614 20.1001 130.748 20.1161 130.861 20.1747C130.973 20.2332 131.056 20.3296 131.09 20.4427L131.344 21.2972C131.374 21.3973 131.364 21.5037 131.316 21.5977C131.267 21.6918 131.184 21.7675 131.08 21.8118C130.975 21.856 130.857 21.8659 130.746 21.8397C130.634 21.8136 130.537 21.753 130.47 21.6686L129.742 22.8022H130.374C130.504 22.8022 130.629 22.8488 130.721 22.9318C130.813 23.0147 130.865 23.1271 130.865 23.2444C130.865 23.3617 130.813 23.4741 130.721 23.557C130.629 23.64 130.504 23.6865 130.374 23.6865H129.459C128.828 23.6865 128.435 23.0725 128.75 22.5812ZM134.816 21.8679C134.75 21.7671 134.643 21.6939 134.518 21.664C134.392 21.6342 134.259 21.6502 134.146 21.7086C134.034 21.7669 133.952 21.8629 133.918 21.9756C133.884 22.0883 133.901 22.2085 133.965 22.31L134.281 22.8022H132.826C132.874 22.7079 132.884 22.6014 132.853 22.5014C132.823 22.4014 132.754 22.3142 132.659 22.2551C132.565 22.196 132.45 22.1688 132.335 22.1782C132.22 22.1876 132.113 22.233 132.032 22.3065L131.339 22.9296C131.249 23.0098 131.193 23.1212 131.193 23.2444C131.193 23.3658 131.245 23.4761 131.339 23.5595L132.032 24.1823C132.113 24.2556 132.22 24.3008 132.335 24.3101C132.45 24.3194 132.564 24.2921 132.659 24.2331C132.753 24.174 132.822 24.087 132.853 23.9871C132.883 23.8872 132.874 23.7808 132.826 23.6865H134.564C135.195 23.6865 135.589 23.0725 135.273 22.5812L134.816 21.8679Z" fill="#416A1A"/>
<path d="M129.4 5.44897C131.285 5.28481 133.157 5.30492 135.016 5.5093C136.072 5.70752 137.132 6.88332 137.229 7.93969V7.94092C137.132 8.75597 136.072 9.29031 135.016 9.31617C133.157 9.39497 131.285 9.37445 129.4 9.25461C128.293 9.18566 127.028 8.4925 126.85 7.61834C127.029 6.62107 128.293 5.6041 129.399 5.44897" fill="#416A1A"/>
<path d="M1.98 29V8H15.48V11.6H5.94V16.61H14.64V20.21H5.94V25.4H15.66V29H1.98ZM25.7013 29.42C24.2613 29.42 22.9513 29.12 21.7713 28.52C20.6113 27.92 19.6913 27.05 19.0113 25.91C18.3313 24.77 17.9913 23.39 17.9913 21.77V21.35C17.9913 19.73 18.3313 18.35 19.0113 17.21C19.6913 16.07 20.6113 15.2 21.7713 14.6C22.9513 14 24.2613 13.7 25.7013 13.7C27.1213 13.7 28.3413 13.95 29.3613 14.45C30.3813 14.95 31.2013 15.64 31.8213 16.52C32.4613 17.38 32.8813 18.36 33.0813 19.46L29.4213 20.24C29.3413 19.64 29.1613 19.1 28.8813 18.62C28.6013 18.14 28.2013 17.76 27.6813 17.48C27.1813 17.2 26.5513 17.06 25.7913 17.06C25.0313 17.06 24.3413 17.23 23.7213 17.57C23.1213 17.89 22.6413 18.38 22.2813 19.04C21.9413 19.68 21.7713 20.47 21.7713 21.41V21.71C21.7713 22.65 21.9413 23.45 22.2813 24.11C22.6413 24.75 23.1213 25.24 23.7213 25.58C24.3413 25.9 25.0313 26.06 25.7913 26.06C26.9313 26.06 27.7913 25.77 28.3713 25.19C28.9713 24.59 29.3513 23.81 29.5113 22.85L33.1713 23.72C32.9113 24.78 32.4613 25.75 31.8213 26.63C31.2013 27.49 30.3813 28.17 29.3613 28.67C28.3413 29.17 27.1213 29.42 25.7013 29.42ZM43.3695 29.42C41.8895 29.42 40.5595 29.12 39.3795 28.52C38.1995 27.92 37.2695 27.05 36.5895 25.91C35.9095 24.77 35.5695 23.4 35.5695 21.8V21.32C35.5695 19.72 35.9095 18.35 36.5895 17.21C37.2695 16.07 38.1995 15.2 39.3795 14.6C40.5595 14 41.8895 13.7 43.3695 13.7C44.8495 13.7 46.1795 14 47.3595 14.6C48.5395 15.2 49.4695 16.07 50.1495 17.21C50.8295 18.35 51.1695 19.72 51.1695 21.32V21.8C51.1695 23.4 50.8295 24.77 50.1495 25.91C49.4695 27.05 48.5395 27.92 47.3595 28.52C46.1795 29.12 44.8495 29.42 43.3695 29.42ZM43.3695 26.06C44.5295 26.06 45.4895 25.69 46.2495 24.95C47.0095 24.19 47.3895 23.11 47.3895 21.71V21.41C47.3895 20.01 47.0095 18.94 46.2495 18.2C45.5095 17.44 44.5495 17.06 43.3695 17.06C42.2095 17.06 41.2495 17.44 40.4895 18.2C39.7295 18.94 39.3495 20.01 39.3495 21.41V21.71C39.3495 23.11 39.7295 24.19 40.4895 24.95C41.2495 25.69 42.2095 26.06 43.3695 26.06ZM61.8286 29.42C60.2086 29.42 58.7786 29.13 57.5386 28.55C56.2986 27.97 55.3286 27.14 54.6286 26.06C53.9286 24.98 53.5786 23.68 53.5786 22.16V21.32H57.4786V22.16C57.4786 23.42 57.8686 24.37 58.6486 25.01C59.4286 25.63 60.4886 25.94 61.8286 25.94C63.1886 25.94 64.1986 25.67 64.8586 25.13C65.5386 24.59 65.8786 23.9 65.8786 23.06C65.8786 22.48 65.7086 22.01 65.3686 21.65C65.0486 21.29 64.5686 21 63.9286 20.78C63.3086 20.54 62.5486 20.32 61.6486 20.12L60.9586 19.97C59.5186 19.65 58.2786 19.25 57.2386 18.77C56.2186 18.27 55.4286 17.62 54.8686 16.82C54.3286 16.02 54.0586 14.98 54.0586 13.7C54.0586 12.42 54.3586 11.33 54.9586 10.43C55.5786 9.51 56.4386 8.81 57.5386 8.33C58.6586 7.83 59.9686 7.58 61.4686 7.58C62.9686 7.58 64.2986 7.84 65.4586 8.36C66.6386 8.86 67.5586 9.62 68.2186 10.64C68.8986 11.64 69.2386 12.9 69.2386 14.42V15.32H65.3386V14.42C65.3386 13.62 65.1786 12.98 64.8586 12.5C64.5586 12 64.1186 11.64 63.5386 11.42C62.9586 11.18 62.2686 11.06 61.4686 11.06C60.2686 11.06 59.3786 11.29 58.7986 11.75C58.2386 12.19 57.9586 12.8 57.9586 13.58C57.9586 14.1 58.0886 14.54 58.3486 14.9C58.6286 15.26 59.0386 15.56 59.5786 15.8C60.1186 16.04 60.8086 16.25 61.6486 16.43L62.3386 16.58C63.8386 16.9 65.1386 17.31 66.2386 17.81C67.3586 18.31 68.2286 18.97 68.8486 19.79C69.4686 20.61 69.7786 21.66 69.7786 22.94C69.7786 24.22 69.4486 25.35 68.7886 26.33C68.1486 27.29 67.2286 28.05 66.0286 28.61C64.8486 29.15 63.4486 29.42 61.8286 29.42ZM79.932 29.42C78.452 29.42 77.122 29.12 75.942 28.52C74.762 27.92 73.832 27.05 73.152 25.91C72.472 24.77 72.132 23.4 72.132 21.8V21.32C72.132 19.72 72.472 18.35 73.152 17.21C73.832 16.07 74.762 15.2 75.942 14.6C77.122 14 78.452 13.7 79.932 13.7C81.412 13.7 82.742 14 83.922 14.6C85.102 15.2 86.032 16.07 86.712 17.21C87.392 18.35 87.732 19.72 87.732 21.32V21.8C87.732 23.4 87.392 24.77 86.712 25.91C86.032 27.05 85.102 27.92 83.922 28.52C82.742 29.12 81.412 29.42 79.932 29.42ZM79.932 26.06C81.092 26.06 82.052 25.69 82.812 24.95C83.572 24.19 83.952 23.11 83.952 21.71V21.41C83.952 20.01 83.572 18.94 82.812 18.2C82.072 17.44 81.112 17.06 79.932 17.06C78.772 17.06 77.812 17.44 77.052 18.2C76.292 18.94 75.912 20.01 75.912 21.41V21.71C75.912 23.11 76.292 24.19 77.052 24.95C77.812 25.69 78.772 26.06 79.932 26.06ZM91.2211 29V14.12H94.9411V15.8H95.4811C95.7011 15.2 96.0611 14.76 96.5611 14.48C97.0811 14.2 97.6811 14.06 98.3611 14.06H100.161V17.42H98.3011C97.3411 17.42 96.5511 17.68 95.9311 18.2C95.3111 18.7 95.0011 19.48 95.0011 20.54V29H91.2211ZM108.816 29C107.836 29 107.036 28.7 106.416 28.1C105.816 27.48 105.516 26.66 105.516 25.64V17.24H101.796V14.12H105.516V9.5H109.296V14.12H113.376V17.24H109.296V24.98C109.296 25.58 109.576 25.88 110.136 25.88H113.016V29H108.816Z" fill="#222222"/>
</svg>
