<svg width="744" height="144" viewBox="0 0 744 144" fill="none" xmlns="http://www.w3.org/2000/svg">
<g clip-path="url(#clip0_495_1571)">
<path d="M716.673 102.699C714.097 114.98 711.543 127.16 709.009 139.239C694.576 140.689 680.12 142.2 665.64 143.772C651.614 143.734 637.589 143.698 623.563 143.664C619.583 128.639 615.635 113.528 611.72 98.3305C609.505 82.2099 607.348 66.0809 605.25 49.9434C645.913 52.8599 686.947 53.0664 728.354 50.5629C724.28 68.5548 720.386 85.9334 716.673 102.699Z" fill="#416A1A"/>
<path d="M716.673 102.699C714.097 114.98 711.543 127.16 709.009 139.239C694.576 140.689 680.12 142.2 665.64 143.772C651.614 143.734 637.589 143.698 623.563 143.664C619.583 128.639 615.635 113.528 611.72 98.3305C609.505 82.2099 607.348 66.0809 605.25 49.9434C645.913 52.8599 686.947 53.0664 728.354 50.5629C724.28 68.5548 720.386 85.9334 716.673 102.699Z" fill="#D5F05F"/>
<path d="M622.166 0C651.252 0.800762 679.856 0.882946 707.977 0.24655C718.486 14.2557 730.439 28.76 743.837 43.7595C694.361 41.1508 643.014 41.0222 589.797 43.3739C601.528 28.1805 612.317 13.7225 622.166 0Z" fill="#416A1A"/>
<path d="M622.166 0C651.252 0.800762 679.856 0.882946 707.977 0.24655C718.486 14.2557 730.439 28.76 743.837 43.7595C694.361 41.1508 643.014 41.0222 589.797 43.3739C601.528 28.1805 612.317 13.7225 622.166 0Z" fill="#D5F05F"/>
<path fill-rule="evenodd" clip-rule="evenodd" d="M670.513 80.111C668.895 77.588 664.849 77.588 663.231 80.111L660.882 83.7737C660.552 84.2948 660.466 84.912 660.64 85.4906C660.815 86.0692 661.236 86.5621 661.813 86.8619C662.39 87.1616 663.075 87.2438 663.719 87.0906C664.363 86.9374 664.914 86.5611 665.251 86.0439L666.872 83.5164L670.605 89.3373C670.016 89.3878 669.465 89.6231 669.05 90.0021C668.634 90.3811 668.379 90.8797 668.33 91.4106C668.282 91.9415 668.442 92.4709 668.783 92.9061C669.124 93.3414 669.625 93.6548 670.197 93.7916L675.071 94.9661C675.436 95.0566 675.82 95.0707 676.192 95.0075C676.565 94.9443 676.916 94.8054 677.22 94.6013C677.681 94.2956 678.007 93.8748 678.162 93.3602L679.467 88.9756C679.62 88.4616 679.568 87.9154 679.319 87.4325C679.071 86.9495 678.642 86.5605 678.107 86.3334C677.572 86.1062 676.966 86.0554 676.393 86.1898C675.821 86.3242 675.32 86.6352 674.976 87.0686L670.513 80.111ZM650.124 100.544L654.585 93.5872C653.996 93.5368 653.445 93.3015 653.029 92.9225C652.613 92.5435 652.359 92.0449 652.31 91.514C652.261 90.9831 652.422 90.4537 652.763 90.0184C653.104 89.5832 653.605 89.2698 654.177 89.133L659.05 87.9585C659.696 87.804 660.384 87.886 660.963 88.1866C661.542 88.4873 661.965 88.9821 662.14 89.5628L663.446 93.9505C663.6 94.4645 663.548 95.0107 663.299 95.4936C663.051 95.9766 662.622 96.3656 662.087 96.5927C661.552 96.8199 660.945 96.8707 660.373 96.7363C659.801 96.6019 659.299 96.2909 658.956 95.8575L655.221 101.679H658.463C659.132 101.679 659.774 101.918 660.247 102.344C660.72 102.77 660.986 103.347 660.986 103.949C660.986 104.551 660.72 105.129 660.247 105.555C659.774 105.98 659.132 106.219 658.463 106.219H653.765C650.527 106.219 648.506 103.067 650.124 100.544ZM681.271 96.8806C680.934 96.3635 680.384 95.9872 679.74 95.834C679.096 95.6807 678.41 95.763 677.834 96.0627C677.257 96.3625 676.835 96.8554 676.66 97.434C676.486 98.0125 676.573 98.6297 676.902 99.1509L678.523 101.679H671.056C671.302 101.195 671.351 100.648 671.194 100.134C671.037 99.6201 670.685 99.1725 670.199 98.8691C669.712 98.5657 669.123 98.4259 668.533 98.4741C667.944 98.5223 667.392 98.7554 666.975 99.1327L663.419 102.333C662.955 102.744 662.668 103.317 662.668 103.949C662.668 104.573 662.937 105.139 663.419 105.567L666.975 108.765C667.393 109.141 667.944 109.374 668.533 109.421C669.122 109.469 669.71 109.329 670.196 109.026C670.682 108.723 671.034 108.276 671.191 107.763C671.348 107.25 671.299 106.704 671.055 106.219H679.979C683.217 106.219 685.24 103.067 683.62 100.544L681.271 96.8806Z" fill="#416A1A"/>
<path d="M653.469 12.5749C663.149 11.732 672.76 11.8353 682.304 12.8847C687.727 13.9025 693.171 19.9398 693.67 25.3639V25.3703C693.171 29.5553 687.727 32.299 682.304 32.4317C672.76 32.8363 663.149 32.731 653.469 32.1156C647.786 31.7616 641.288 28.2024 640.375 23.7139C641.295 18.5933 647.786 13.3715 653.462 12.5749" fill="#416A1A"/>
<path d="M550.145 130.064C541.621 130.064 535.306 127.804 531.198 123.286C527.193 118.767 525.19 111.733 525.19 102.182V63.5182H513.945L514.099 48.4223H520.877C524.266 48.3196 526.731 47.6521 528.271 46.4198C529.811 45.1875 530.736 43.0823 531.044 40.1041L532.584 29.9375H543.983V47.8061H564.933V63.9804H543.983V101.258C543.983 105.16 544.856 107.984 546.602 109.73C548.45 111.476 551.12 112.349 554.612 112.349C556.563 112.349 558.463 112.144 560.311 111.733C562.16 111.219 563.854 110.398 565.395 109.268V127.599C562.417 128.626 559.644 129.293 557.077 129.601C554.509 129.909 552.199 130.064 550.145 130.064Z" fill="white"/>
<path d="M455.016 128.365V87.852V47.8016H471.652L471.036 76.9152H473.654C474.476 69.932 475.862 64.1812 477.814 59.6627C479.765 55.0415 482.435 51.6013 485.824 49.342C489.213 47.0828 493.32 45.9531 498.147 45.9531C499.276 45.9531 500.457 46.0558 501.69 46.2612C503.025 46.4666 504.462 46.7747 506.003 47.1854L505.233 67.9809C503.59 67.262 501.844 66.7485 499.995 66.4405C498.25 66.0297 496.658 65.8243 495.22 65.8243C491.318 65.8243 487.929 66.9026 485.053 69.0591C482.178 71.2157 479.867 74.2965 478.122 78.3015C476.376 82.2039 475.144 86.8764 474.425 92.3192V128.365H455.016Z" fill="white"/>
<path d="M398.996 130.371C391.088 130.371 384.105 128.779 378.046 125.595C372.09 122.412 367.418 117.688 364.029 111.424C360.64 105.057 358.945 97.2008 358.945 87.8557C358.945 78.4079 360.691 70.6032 364.183 64.4416C367.674 58.1773 372.398 53.5047 378.354 50.4239C384.413 47.3431 391.242 45.8027 398.842 45.8027C406.646 45.8027 413.578 47.3945 419.637 50.578C425.696 53.7615 430.42 58.4854 433.809 64.7497C437.3 71.0139 439.046 78.87 439.046 88.3178C439.046 97.7656 437.3 105.622 433.809 111.886C430.317 118.15 425.542 122.823 419.483 125.904C413.424 128.882 406.595 130.371 398.996 130.371ZM399.612 115.583C403.822 115.583 407.417 114.556 410.395 112.502C413.373 110.448 415.632 107.47 417.172 103.568C418.713 99.5627 419.483 94.7875 419.483 89.242C419.483 83.3885 418.662 78.4079 417.018 74.3001C415.375 70.0897 413.013 66.8549 409.933 64.5956C406.852 62.3364 403.001 61.2067 398.38 61.2067C394.272 61.2067 390.729 62.2337 387.751 64.2875C384.773 66.3414 382.462 69.3195 380.819 73.2219C379.279 77.1242 378.508 81.9508 378.508 87.7016C378.508 96.6359 380.357 103.516 384.054 108.343C387.853 113.17 393.039 115.583 399.612 115.583Z" fill="white"/>
<path d="M304.424 130.375C297.748 130.375 291.792 129.707 286.555 128.372C281.42 127.037 277.004 124.983 273.307 122.21C269.713 119.438 266.941 116.049 264.99 112.044C263.142 107.936 262.166 103.264 262.062 98.0262L279.469 93.0969C279.469 98.1289 280.547 102.288 282.704 105.574C284.86 108.758 287.89 111.12 291.792 112.66C295.797 114.2 300.316 114.971 305.348 114.971C310.174 114.971 314.282 114.354 317.671 113.122C321.06 111.89 323.627 110.247 325.373 108.193C327.119 106.139 327.992 103.777 327.992 101.107C327.992 98.1289 326.862 95.7156 324.603 93.8671C322.446 92.0186 319.519 90.5296 315.822 89.3999C312.228 88.1676 308.12 87.038 303.499 86.0111C298.673 84.8814 293.897 83.6491 289.174 82.3141C284.45 80.8764 280.188 79.0792 276.388 76.9227C272.589 74.6634 269.508 71.788 267.146 68.2964C264.887 64.8049 263.757 60.3377 263.757 54.895C263.757 48.7334 265.297 43.3933 268.378 38.8748C271.562 34.3563 276.029 30.8647 281.78 28.4001C287.633 25.9354 294.616 24.7031 302.729 24.7031C310.842 24.7031 317.876 25.9354 323.833 28.4001C329.891 30.8647 334.615 34.459 338.004 39.1829C341.393 43.8041 343.089 49.3495 343.089 55.8192L325.373 60.2864C325.373 57.0002 324.859 54.0734 323.833 51.5061C322.806 48.9388 321.265 46.8335 319.211 45.1904C317.26 43.4447 314.847 42.161 311.971 41.3395C309.199 40.5179 306.068 40.1071 302.576 40.1071C298.366 40.1071 294.719 40.6719 291.638 41.8016C288.66 42.9312 286.349 44.4716 284.706 46.4228C283.166 48.3739 282.396 50.6845 282.396 53.3546C282.396 56.5381 283.577 59.1054 285.939 61.0566C288.301 63.0077 291.485 64.5995 295.49 65.8318C299.495 66.9614 303.859 68.0911 308.583 69.2207C312.998 70.1449 317.414 71.2746 321.83 72.6096C326.349 73.9446 330.457 75.7417 334.154 78.001C337.954 80.1575 340.982 83.0843 343.242 86.7812C345.604 90.3755 346.785 94.9454 346.785 100.491C346.785 106.55 345.141 111.838 341.855 116.357C338.672 120.875 333.948 124.367 327.684 126.832C321.419 129.194 313.666 130.375 304.424 130.375Z" fill="white"/>
<path d="M209.449 130.371C201.541 130.371 194.558 128.779 188.499 125.595C182.543 122.412 177.871 117.688 174.482 111.424C171.093 105.057 169.398 97.2008 169.398 87.8557C169.398 78.4079 171.144 70.6032 174.636 64.4416C178.127 58.1773 182.851 53.5047 188.807 50.4239C194.866 47.3431 201.695 45.8027 209.295 45.8027C217.099 45.8027 224.031 47.3945 230.09 50.578C236.149 53.7615 240.873 58.4854 244.262 64.7497C247.753 71.0139 249.499 78.87 249.499 88.3178C249.499 97.7656 247.753 105.622 244.262 111.886C240.77 118.15 235.995 122.823 229.936 125.904C223.877 128.882 217.048 130.371 209.449 130.371ZM210.065 115.583C214.275 115.583 217.87 114.556 220.848 112.502C223.826 110.448 226.085 107.47 227.626 103.568C229.166 99.5627 229.936 94.7875 229.936 89.242C229.936 83.3885 229.115 78.4079 227.472 74.3001C225.828 70.0897 223.466 66.8549 220.386 64.5956C217.305 62.3364 213.454 61.2067 208.833 61.2067C204.725 61.2067 201.182 62.2337 198.204 64.2875C195.226 66.3414 192.915 69.3195 191.272 73.2219C189.732 77.1242 188.962 81.9508 188.962 87.7016C188.962 96.6359 190.81 103.516 194.507 108.343C198.307 113.17 203.493 115.583 210.065 115.583Z" fill="white"/>
<path d="M124.63 130.371C117.647 130.371 111.588 129.344 106.453 127.29C101.421 125.236 97.2619 122.309 93.9757 118.51C90.6896 114.71 88.2249 110.346 86.5818 105.416C84.9387 100.384 84.1172 94.9415 84.1172 89.088C84.1172 82.9264 84.9387 77.2269 86.5818 71.9895C88.3276 66.7522 90.8436 62.1823 94.1298 58.28C97.5187 54.2749 101.678 51.1941 106.607 49.0376C111.536 46.881 117.287 45.8027 123.86 45.8027C130.535 45.8027 136.285 46.9837 141.112 49.3457C146.041 51.6049 149.892 54.7884 152.665 58.8961C155.54 62.9012 157.338 67.5224 158.056 72.7597L140.034 77.689C139.828 74.4028 139.007 71.5274 137.569 69.0628C136.234 66.5981 134.334 64.6983 131.87 63.3633C129.405 62.0283 126.478 61.3608 123.089 61.3608C120.009 61.3608 117.236 61.9769 114.771 63.2093C112.409 64.4416 110.407 66.2387 108.764 68.6007C107.121 70.8599 105.837 73.684 104.913 77.0729C104.091 80.359 103.68 84.1073 103.68 88.3178C103.68 94.0686 104.45 98.9979 105.991 103.106C107.634 107.111 109.996 110.191 113.077 112.348C116.26 114.402 120.163 115.429 124.784 115.429C128.994 115.429 132.383 114.607 134.95 112.964C137.518 111.321 139.469 109.165 140.804 106.494C142.139 103.824 142.909 100.949 143.115 97.8683L160.521 101.257C160.11 105.468 159.083 109.37 157.44 112.964C155.797 116.558 153.435 119.691 150.354 122.361C147.376 124.928 143.731 126.93 139.418 128.368C135.207 129.703 130.278 130.371 124.63 130.371Z" fill="white"/>
<path d="M0 128.364V26.6973H19.5631V128.364H0ZM12.7853 128.364V112.189H75.0175V128.364H12.7853ZM12.7853 84.3082V69.3664H67.6236V84.3082H12.7853ZM12.7853 42.8715V26.6973H74.8634V42.8715H12.7853Z" fill="white"/>
</g>
<defs>
<clipPath id="clip0_495_1571">
<rect width="744" height="144" fill="white"/>
</clipPath>
</defs>
</svg>
