<svg width="738" height="712" viewBox="0 0 738 712" fill="none" xmlns="http://www.w3.org/2000/svg">
<path d="M591.441 503.339C579.887 562.195 568.428 620.566 557.063 678.452C492.319 685.4 427.47 692.641 362.515 700.174C299.599 699.993 236.682 699.821 173.766 699.659C155.91 627.655 138.201 555.236 120.639 482.404C110.702 405.148 101.028 327.852 91.6172 250.516C274.023 264.492 458.098 265.482 643.844 253.485C625.567 339.708 608.1 422.993 591.441 503.339Z" stroke="black" stroke-width="22"/>
<path d="M167.491 11.1738C297.966 15.0114 426.278 15.4052 552.427 12.3554C599.567 79.4921 653.187 149.002 713.289 220.885C491.348 208.383 261.015 207.767 22.2891 219.037C74.9121 146.225 123.313 76.9371 167.491 11.1738Z" stroke="black" stroke-width="22"/>
<path fill-rule="evenodd" clip-rule="evenodd" d="M372.449 376.52L372.36 376.535L371.835 376.794L371.687 376.824L371.583 376.794L371.058 376.528C370.979 376.508 370.92 376.523 370.881 376.572L370.851 376.646L370.725 379.812L370.762 379.96L370.836 380.056L371.606 380.603L371.717 380.633L371.805 380.603L372.575 380.056L372.663 379.938L372.693 379.812L372.567 376.653C372.548 376.574 372.508 376.53 372.449 376.52ZM374.402 375.684L374.298 375.699L372.937 376.387L372.863 376.461L372.841 376.542L372.974 379.723L373.011 379.812L373.07 379.871L374.557 380.552C374.651 380.576 374.722 380.557 374.772 380.493L374.801 380.389L374.55 375.847C374.525 375.753 374.476 375.699 374.402 375.684ZM369.113 375.699C369.08 375.679 369.041 375.673 369.004 375.681C368.967 375.69 368.934 375.712 368.913 375.744L368.869 375.847L368.617 380.389C368.622 380.478 368.664 380.537 368.743 380.567L368.854 380.552L370.341 379.864L370.415 379.805L370.437 379.723L370.57 376.542L370.548 376.454L370.474 376.38L369.113 375.699Z" fill="#515151"/>
<path fill-rule="evenodd" clip-rule="evenodd" d="M384.071 394.01C376.955 381.679 359.158 381.679 352.042 394.01L341.708 411.911C340.26 414.458 339.878 417.475 340.645 420.303C341.413 423.13 343.268 425.54 345.805 427.005C348.343 428.47 351.357 428.872 354.19 428.123C357.022 427.374 359.444 425.535 360.926 423.007L368.057 410.654L384.478 439.103C381.887 439.35 379.464 440.5 377.634 442.352C375.805 444.205 374.685 446.642 374.471 449.236C374.257 451.831 374.962 454.418 376.462 456.546C377.963 458.673 380.165 460.205 382.681 460.873L404.118 466.614C405.725 467.056 407.413 467.125 409.051 466.816C410.689 466.507 412.236 465.828 413.572 464.831C415.598 463.337 417.033 461.28 417.714 458.765L423.454 437.335C424.129 434.823 423.9 432.154 422.807 429.794C421.714 427.433 419.826 425.532 417.474 424.422C415.121 423.311 412.454 423.063 409.937 423.72C407.42 424.377 405.214 425.897 403.704 428.015L384.071 394.01ZM294.388 493.872L314.013 459.875C311.421 459.628 308.998 458.478 307.169 456.626C305.339 454.773 304.219 452.337 304.005 449.742C303.791 447.147 304.496 444.56 305.997 442.432C307.498 440.305 309.699 438.773 312.215 438.105L333.652 432.365C336.494 431.609 339.519 432.01 342.065 433.48C344.612 434.949 346.473 437.367 347.241 440.206L352.988 461.65C353.663 464.162 353.434 466.832 352.341 469.192C351.248 471.552 349.361 473.454 347.008 474.564C344.656 475.674 341.988 475.922 339.471 475.266C336.954 474.609 334.748 473.089 333.238 470.971L316.809 499.42H331.071C334.013 499.42 336.836 500.589 338.916 502.67C340.997 504.751 342.166 507.573 342.166 510.516C342.166 513.459 340.997 516.281 338.916 518.362C336.836 520.443 334.013 521.612 331.071 521.612H310.403C296.163 521.612 287.272 506.203 294.388 493.872ZM431.391 475.971C429.91 473.443 427.488 471.604 424.655 470.856C421.823 470.107 418.809 470.508 416.271 471.974C413.734 473.439 411.879 475.848 411.111 478.676C410.343 481.503 410.725 484.52 412.173 487.067L419.304 499.42H386.461C387.542 497.053 387.757 494.38 387.068 491.87C386.378 489.36 384.828 487.172 382.689 485.69C380.549 484.207 377.957 483.523 375.364 483.759C372.772 483.995 370.345 485.134 368.508 486.978L352.87 502.616C350.828 504.628 349.564 507.424 349.564 510.516C349.564 513.564 350.747 516.33 352.87 518.424L368.508 534.054C370.346 535.893 372.772 537.028 375.361 537.26C377.951 537.493 380.54 536.809 382.677 535.328C384.814 533.846 386.362 531.661 387.052 529.155C387.743 526.648 387.531 523.978 386.453 521.612H425.71C439.95 521.612 448.849 506.203 441.725 493.872L431.391 475.971Z" fill="#515151"/>
<mask id="path-6-inside-1_481_896" fill="white">
<path d="M307.9 71.4353C351.322 67.3958 394.439 67.8907 437.252 72.9199C461.578 77.7976 485.999 106.731 488.236 132.725C488.236 132.745 488.236 132.755 488.236 132.755C485.999 152.811 461.578 165.96 437.252 166.596C394.439 168.535 351.322 168.03 307.9 165.081C282.408 163.385 253.26 146.328 249.164 124.818C253.292 100.277 282.408 75.2527 307.869 71.4353"/>
</mask>
<path d="M437.252 72.9199L441.577 51.3492L440.704 51.174L439.819 51.0701L437.252 72.9199ZM488.236 132.725H510.236V131.78L510.155 130.838L488.236 132.725ZM488.236 132.755L510.101 135.194L510.236 133.978V132.755H488.236ZM437.252 166.596L436.677 144.604L436.467 144.609L436.257 144.619L437.252 166.596ZM307.9 165.081L309.391 143.132L309.376 143.131L309.361 143.13L307.9 165.081ZM249.164 124.818L227.469 121.168L226.815 125.058L227.552 128.933L249.164 124.818ZM307.9 71.4353L309.938 93.3408C351.845 89.4421 393.419 89.9221 434.685 94.7696L437.252 72.9199L439.819 51.0701C395.46 45.8592 350.799 45.3495 305.862 49.5299L307.9 71.4353ZM437.252 72.9199L432.927 94.4905C438.755 95.659 446.901 100.486 454.263 109.15C461.543 117.717 465.687 127.281 466.317 134.611L488.236 132.725L510.155 130.838C508.549 112.174 499.363 94.2745 487.792 80.6578C476.302 67.1364 460.076 55.0584 441.577 51.3492L437.252 72.9199ZM488.236 132.725H466.236C466.236 132.725 466.236 132.725 466.236 132.725C466.236 132.725 466.236 132.725 466.236 132.725C466.236 132.725 466.236 132.725 466.236 132.725C466.236 132.725 466.236 132.725 466.236 132.725C466.236 132.725 466.236 132.725 466.236 132.725C466.236 132.726 466.236 132.726 466.236 132.726C466.236 132.726 466.236 132.726 466.236 132.726C466.236 132.726 466.236 132.726 466.236 132.726C466.236 132.726 466.236 132.726 466.236 132.726C466.236 132.726 466.236 132.726 466.236 132.726C466.236 132.726 466.236 132.726 466.236 132.726C466.236 132.726 466.236 132.726 466.236 132.726C466.236 132.726 466.236 132.726 466.236 132.726C466.236 132.726 466.236 132.726 466.236 132.727C466.236 132.727 466.236 132.727 466.236 132.727C466.236 132.727 466.236 132.727 466.236 132.727C466.236 132.727 466.236 132.727 466.236 132.727C466.236 132.727 466.236 132.727 466.236 132.727C466.236 132.727 466.236 132.727 466.236 132.727C466.236 132.727 466.236 132.727 466.236 132.727C466.236 132.727 466.236 132.727 466.236 132.727C466.236 132.727 466.236 132.727 466.236 132.727C466.236 132.727 466.236 132.728 466.236 132.728C466.236 132.728 466.236 132.728 466.236 132.728C466.236 132.728 466.236 132.728 466.236 132.728C466.236 132.728 466.236 132.728 466.236 132.728C466.236 132.728 466.236 132.728 466.236 132.728C466.236 132.728 466.236 132.728 466.236 132.728C466.236 132.728 466.236 132.728 466.236 132.728C466.236 132.728 466.236 132.728 466.236 132.728C466.236 132.728 466.236 132.728 466.236 132.728C466.236 132.728 466.236 132.729 466.236 132.729C466.236 132.729 466.236 132.729 466.236 132.729C466.236 132.729 466.236 132.729 466.236 132.729C466.236 132.729 466.236 132.729 466.236 132.729C466.236 132.729 466.236 132.729 466.236 132.729C466.236 132.729 466.236 132.729 466.236 132.729C466.236 132.729 466.236 132.729 466.236 132.729C466.236 132.729 466.236 132.729 466.236 132.729C466.236 132.729 466.236 132.729 466.236 132.729C466.236 132.729 466.236 132.73 466.236 132.73C466.236 132.73 466.236 132.73 466.236 132.73C466.236 132.73 466.236 132.73 466.236 132.73C466.236 132.73 466.236 132.73 466.236 132.73C466.236 132.73 466.236 132.73 466.236 132.73C466.236 132.73 466.236 132.73 466.236 132.73C466.236 132.73 466.236 132.73 466.236 132.73C466.236 132.73 466.236 132.73 466.236 132.73C466.236 132.73 466.236 132.73 466.236 132.73C466.236 132.73 466.236 132.73 466.236 132.731C466.236 132.731 466.236 132.731 466.236 132.731C466.236 132.731 466.236 132.731 466.236 132.731C466.236 132.731 466.236 132.731 466.236 132.731C466.236 132.731 466.236 132.731 466.236 132.731C466.236 132.731 466.236 132.731 466.236 132.731C466.236 132.731 466.236 132.731 466.236 132.731C466.236 132.731 466.236 132.731 466.236 132.731C466.236 132.731 466.236 132.731 466.236 132.731C466.236 132.731 466.236 132.731 466.236 132.731C466.236 132.731 466.236 132.732 466.236 132.732C466.236 132.732 466.236 132.732 466.236 132.732C466.236 132.732 466.236 132.732 466.236 132.732C466.236 132.732 466.236 132.732 466.236 132.732C466.236 132.732 466.236 132.732 466.236 132.732C466.236 132.732 466.236 132.732 466.236 132.732C466.236 132.732 466.236 132.732 466.236 132.732C466.236 132.732 466.236 132.732 466.236 132.732C466.236 132.732 466.236 132.732 466.236 132.732C466.236 132.732 466.236 132.732 466.236 132.732C466.236 132.733 466.236 132.733 466.236 132.733C466.236 132.733 466.236 132.733 466.236 132.733C466.236 132.733 466.236 132.733 466.236 132.733C466.236 132.733 466.236 132.733 466.236 132.733C466.236 132.733 466.236 132.733 466.236 132.733C466.236 132.733 466.236 132.733 466.236 132.733C466.236 132.733 466.236 132.733 466.236 132.733C466.236 132.733 466.236 132.733 466.236 132.733C466.236 132.733 466.236 132.733 466.236 132.733C466.236 132.733 466.236 132.733 466.236 132.734C466.236 132.734 466.236 132.734 466.236 132.734C466.236 132.734 466.236 132.734 466.236 132.734C466.236 132.734 466.236 132.734 466.236 132.734C466.236 132.734 466.236 132.734 466.236 132.734C466.236 132.734 466.236 132.734 466.236 132.734C466.236 132.734 466.236 132.734 466.236 132.734C466.236 132.734 466.236 132.734 466.236 132.734C466.236 132.734 466.236 132.734 466.236 132.734C466.236 132.734 466.236 132.734 466.236 132.734C466.236 132.734 466.236 132.734 466.236 132.734C466.236 132.735 466.236 132.735 466.236 132.735C466.236 132.735 466.236 132.735 466.236 132.735C466.236 132.735 466.236 132.735 466.236 132.735C466.236 132.735 466.236 132.735 466.236 132.735C466.236 132.735 466.236 132.735 466.236 132.735C466.236 132.735 466.236 132.735 466.236 132.735C466.236 132.735 466.236 132.735 466.236 132.735C466.236 132.735 466.236 132.735 466.236 132.735C466.236 132.735 466.236 132.735 466.236 132.735C466.236 132.735 466.236 132.735 466.236 132.735C466.236 132.735 466.236 132.736 466.236 132.736C466.236 132.736 466.236 132.736 466.236 132.736C466.236 132.736 466.236 132.736 466.236 132.736C466.236 132.736 466.236 132.736 466.236 132.736C466.236 132.736 466.236 132.736 466.236 132.736C466.236 132.736 466.236 132.736 466.236 132.736C466.236 132.736 466.236 132.736 466.236 132.736C466.236 132.736 466.236 132.736 466.236 132.736C466.236 132.736 466.236 132.736 466.236 132.736C466.236 132.736 466.236 132.736 466.236 132.736C466.236 132.736 466.236 132.736 466.236 132.736C466.236 132.737 466.236 132.737 466.236 132.737C466.236 132.737 466.236 132.737 466.236 132.737C466.236 132.737 466.236 132.737 466.236 132.737C466.236 132.737 466.236 132.737 466.236 132.737C466.236 132.737 466.236 132.737 466.236 132.737C466.236 132.737 466.236 132.737 466.236 132.737C466.236 132.737 466.236 132.737 466.236 132.737C466.236 132.737 466.236 132.737 466.236 132.737C466.236 132.737 466.236 132.737 466.236 132.737C466.236 132.737 466.236 132.737 466.236 132.737C466.236 132.737 466.236 132.737 466.236 132.738C466.236 132.738 466.236 132.738 466.236 132.738C466.236 132.738 466.236 132.738 466.236 132.738C466.236 132.738 466.236 132.738 466.236 132.738C466.236 132.738 466.236 132.738 466.236 132.738C466.236 132.738 466.236 132.738 466.236 132.738C466.236 132.738 466.236 132.738 466.236 132.738C466.236 132.738 466.236 132.738 466.236 132.738C466.236 132.738 466.236 132.738 466.236 132.738C466.236 132.738 466.236 132.738 466.236 132.738C466.236 132.738 466.236 132.738 466.236 132.738C466.236 132.738 466.236 132.738 466.236 132.738C466.236 132.739 466.236 132.739 466.236 132.739C466.236 132.739 466.236 132.739 466.236 132.739C466.236 132.739 466.236 132.739 466.236 132.739C466.236 132.739 466.236 132.739 466.236 132.739C466.236 132.739 466.236 132.739 466.236 132.739C466.236 132.739 466.236 132.739 466.236 132.739C466.236 132.739 466.236 132.739 466.236 132.739C466.236 132.739 466.236 132.739 466.236 132.739C466.236 132.739 466.236 132.739 466.236 132.739C466.236 132.739 466.236 132.739 466.236 132.739C466.236 132.739 466.236 132.739 466.236 132.739C466.236 132.739 466.236 132.739 466.236 132.74C466.236 132.74 466.236 132.74 466.236 132.74C466.236 132.74 466.236 132.74 466.236 132.74C466.236 132.74 466.236 132.74 466.236 132.74C466.236 132.74 466.236 132.74 466.236 132.74C466.236 132.74 466.236 132.74 466.236 132.74C466.236 132.74 466.236 132.74 466.236 132.74C466.236 132.74 466.236 132.74 466.236 132.74C466.236 132.74 466.236 132.74 466.236 132.74C466.236 132.74 466.236 132.74 466.236 132.74C466.236 132.74 466.236 132.74 466.236 132.74C466.236 132.74 466.236 132.74 466.236 132.74C466.236 132.74 466.236 132.741 466.236 132.741C466.236 132.741 466.236 132.741 466.236 132.741C466.236 132.741 466.236 132.741 466.236 132.741C466.236 132.741 466.236 132.741 466.236 132.741C466.236 132.741 466.236 132.741 466.236 132.741C466.236 132.741 466.236 132.741 466.236 132.741C466.236 132.741 466.236 132.741 466.236 132.741C466.236 132.741 466.236 132.741 466.236 132.741C466.236 132.741 466.236 132.741 466.236 132.741C466.236 132.741 466.236 132.741 466.236 132.741C466.236 132.741 466.236 132.741 466.236 132.741C466.236 132.741 466.236 132.741 466.236 132.741C466.236 132.741 466.236 132.741 466.236 132.742C466.236 132.742 466.236 132.742 466.236 132.742C466.236 132.742 466.236 132.742 466.236 132.742C466.236 132.742 466.236 132.742 466.236 132.742C466.236 132.742 466.236 132.742 466.236 132.742C466.236 132.742 466.236 132.742 466.236 132.742C466.236 132.742 466.236 132.742 466.236 132.742C466.236 132.742 466.236 132.742 466.236 132.742C466.236 132.742 466.236 132.742 466.236 132.742C466.236 132.742 466.236 132.742 466.236 132.742C466.236 132.742 466.236 132.742 466.236 132.742C466.236 132.742 466.236 132.742 466.236 132.742C466.236 132.742 466.236 132.742 466.236 132.742C466.236 132.742 466.236 132.742 466.236 132.743C466.236 132.743 466.236 132.743 466.236 132.743C466.236 132.743 466.236 132.743 466.236 132.743C466.236 132.743 466.236 132.743 466.236 132.743C466.236 132.743 466.236 132.743 466.236 132.743C466.236 132.743 466.236 132.743 466.236 132.743C466.236 132.743 466.236 132.743 466.236 132.743C466.236 132.743 466.236 132.743 466.236 132.743C466.236 132.743 466.236 132.743 466.236 132.743C466.236 132.743 466.236 132.743 466.236 132.743C466.236 132.743 466.236 132.743 466.236 132.743C466.236 132.743 466.236 132.743 466.236 132.743C466.236 132.743 466.236 132.743 466.236 132.743C466.236 132.743 466.236 132.743 466.236 132.743C466.236 132.744 466.236 132.744 466.236 132.744C466.236 132.744 466.236 132.744 466.236 132.744C466.236 132.744 466.236 132.744 466.236 132.744C466.236 132.744 466.236 132.744 466.236 132.744C466.236 132.744 466.236 132.744 466.236 132.744C466.236 132.744 466.236 132.744 466.236 132.744C466.236 132.744 466.236 132.744 466.236 132.744C466.236 132.744 466.236 132.744 466.236 132.744C466.236 132.744 466.236 132.744 466.236 132.744C466.236 132.744 466.236 132.744 466.236 132.744C466.236 132.744 466.236 132.744 466.236 132.744C466.236 132.744 466.236 132.744 466.236 132.744C466.236 132.744 466.236 132.744 466.236 132.744C466.236 132.744 466.236 132.744 466.236 132.744C466.236 132.745 466.236 132.745 466.236 132.745C466.236 132.745 466.236 132.745 466.236 132.745C466.236 132.745 466.236 132.745 466.236 132.745C466.236 132.745 466.236 132.745 466.236 132.745C466.236 132.745 466.236 132.745 466.236 132.745C466.236 132.745 466.236 132.745 466.236 132.745C466.236 132.745 466.236 132.745 466.236 132.745C466.236 132.745 466.236 132.745 466.236 132.745C466.236 132.745 466.236 132.745 466.236 132.745C466.236 132.745 466.236 132.745 466.236 132.745C466.236 132.745 466.236 132.745 466.236 132.745C466.236 132.745 466.236 132.745 466.236 132.745C466.236 132.745 466.236 132.745 466.236 132.745C466.236 132.745 466.236 132.745 466.236 132.745C466.236 132.745 466.236 132.746 466.236 132.746C466.236 132.746 466.236 132.746 466.236 132.746C466.236 132.746 466.236 132.746 466.236 132.746C466.236 132.746 466.236 132.746 466.236 132.746C466.236 132.746 466.236 132.746 466.236 132.746C466.236 132.746 466.236 132.746 466.236 132.746C466.236 132.746 466.236 132.746 466.236 132.746C466.236 132.746 466.236 132.746 466.236 132.746C466.236 132.746 466.236 132.746 466.236 132.746C466.236 132.746 466.236 132.746 466.236 132.746C466.236 132.746 466.236 132.746 466.236 132.746C466.236 132.746 466.236 132.746 466.236 132.746C466.236 132.746 466.236 132.746 466.236 132.746C466.236 132.746 466.236 132.746 466.236 132.746C466.236 132.746 466.236 132.746 466.236 132.746C466.236 132.746 466.236 132.746 466.236 132.747C466.236 132.747 466.236 132.747 466.236 132.747C466.236 132.747 466.236 132.747 466.236 132.747C466.236 132.747 466.236 132.747 466.236 132.747C466.236 132.747 466.236 132.747 466.236 132.747C466.236 132.747 466.236 132.747 466.236 132.747C466.236 132.747 466.236 132.747 466.236 132.747C466.236 132.747 466.236 132.747 466.236 132.747C466.236 132.747 466.236 132.747 466.236 132.747C466.236 132.747 466.236 132.747 466.236 132.747C466.236 132.747 466.236 132.747 466.236 132.747C466.236 132.747 466.236 132.747 466.236 132.747C466.236 132.747 466.236 132.747 466.236 132.747C466.236 132.747 466.236 132.747 466.236 132.747C466.236 132.747 466.236 132.747 466.236 132.747C466.236 132.747 466.236 132.747 466.236 132.747C466.236 132.747 466.236 132.747 466.236 132.747C466.236 132.748 466.236 132.748 466.236 132.748C466.236 132.748 466.236 132.748 466.236 132.748C466.236 132.748 466.236 132.748 466.236 132.748C466.236 132.748 466.236 132.748 466.236 132.748C466.236 132.748 466.236 132.748 466.236 132.748C466.236 132.748 466.236 132.748 466.236 132.748C466.236 132.748 466.236 132.748 466.236 132.748C466.236 132.748 466.236 132.748 466.236 132.748C466.236 132.748 466.236 132.748 466.236 132.748C466.236 132.748 466.236 132.748 466.236 132.748C466.236 132.748 466.236 132.748 466.236 132.748C466.236 132.748 466.236 132.748 466.236 132.748C466.236 132.748 466.236 132.748 466.236 132.748C466.236 132.748 466.236 132.748 466.236 132.748C466.236 132.748 466.236 132.748 466.236 132.748C466.236 132.748 466.236 132.748 466.236 132.748C466.236 132.748 466.236 132.748 466.236 132.748C466.236 132.748 466.236 132.749 466.236 132.749C466.236 132.749 466.236 132.749 466.236 132.749C466.236 132.749 466.236 132.749 466.236 132.749C466.236 132.749 466.236 132.749 466.236 132.749C466.236 132.749 466.236 132.749 466.236 132.749C466.236 132.749 466.236 132.749 466.236 132.749C466.236 132.749 466.236 132.749 466.236 132.749C466.236 132.749 466.236 132.749 466.236 132.749C466.236 132.749 466.236 132.749 466.236 132.749C466.236 132.749 466.236 132.749 466.236 132.749C466.236 132.749 466.236 132.749 466.236 132.749C466.236 132.749 466.236 132.749 466.236 132.749C466.236 132.749 466.236 132.749 466.236 132.749C466.236 132.749 466.236 132.749 466.236 132.749C466.236 132.749 466.236 132.749 466.236 132.749C466.236 132.749 466.236 132.749 466.236 132.749C466.236 132.749 466.236 132.749 466.236 132.749C466.236 132.749 466.236 132.749 466.236 132.749C466.236 132.749 466.236 132.749 466.236 132.749C466.236 132.749 466.236 132.75 466.236 132.75C466.236 132.75 466.236 132.75 466.236 132.75C466.236 132.75 466.236 132.75 466.236 132.75C466.236 132.75 466.236 132.75 466.236 132.75C466.236 132.75 466.236 132.75 466.236 132.75C466.236 132.75 466.236 132.75 466.236 132.75C466.236 132.75 466.236 132.75 466.236 132.75C466.236 132.75 466.236 132.75 466.236 132.75C466.236 132.75 466.236 132.75 466.236 132.75C466.236 132.75 466.236 132.75 466.236 132.75C466.236 132.75 466.236 132.75 466.236 132.75C466.236 132.75 466.236 132.75 466.236 132.75C466.236 132.75 466.236 132.75 466.236 132.75C466.236 132.75 466.236 132.75 466.236 132.75C466.236 132.75 466.236 132.75 466.236 132.75C466.236 132.75 466.236 132.75 466.236 132.75C466.236 132.75 466.236 132.75 466.236 132.75C466.236 132.75 466.236 132.75 466.236 132.75C466.236 132.75 466.236 132.75 466.236 132.75C466.236 132.75 466.236 132.75 466.236 132.75C466.236 132.75 466.236 132.75 466.236 132.751C466.236 132.751 466.236 132.751 466.236 132.751C466.236 132.751 466.236 132.751 466.236 132.751C466.236 132.751 466.236 132.751 466.236 132.751C466.236 132.751 466.236 132.751 466.236 132.751C466.236 132.751 466.236 132.751 466.236 132.751C466.236 132.751 466.236 132.751 466.236 132.751C466.236 132.751 466.236 132.751 466.236 132.751C466.236 132.751 466.236 132.751 466.236 132.751C466.236 132.751 466.236 132.751 466.236 132.751C466.236 132.751 466.236 132.751 466.236 132.751C466.236 132.751 466.236 132.751 466.236 132.751C466.236 132.751 466.236 132.751 466.236 132.751C466.236 132.751 466.236 132.751 466.236 132.751C466.236 132.751 466.236 132.751 466.236 132.751C466.236 132.751 466.236 132.751 466.236 132.751C466.236 132.751 466.236 132.751 466.236 132.751C466.236 132.751 466.236 132.751 466.236 132.751C466.236 132.751 466.236 132.751 466.236 132.751C466.236 132.751 466.236 132.751 466.236 132.751C466.236 132.751 466.236 132.751 466.236 132.751C466.236 132.751 466.236 132.751 466.236 132.751C466.236 132.751 466.236 132.751 466.236 132.751C466.236 132.751 466.236 132.752 466.236 132.752C466.236 132.752 466.236 132.752 466.236 132.752C466.236 132.752 466.236 132.752 466.236 132.752C466.236 132.752 466.236 132.752 466.236 132.752C466.236 132.752 466.236 132.752 466.236 132.752C466.236 132.752 466.236 132.752 466.236 132.752C466.236 132.752 466.236 132.752 466.236 132.752C466.236 132.752 466.236 132.752 466.236 132.752C466.236 132.752 466.236 132.752 466.236 132.752C466.236 132.752 466.236 132.752 466.236 132.752C466.236 132.752 466.236 132.752 466.236 132.752C466.236 132.752 466.236 132.752 466.236 132.752C466.236 132.752 466.236 132.752 466.236 132.752C466.236 132.752 466.236 132.752 466.236 132.752C466.236 132.752 466.236 132.752 466.236 132.752C466.236 132.752 466.236 132.752 466.236 132.752C466.236 132.752 466.236 132.752 466.236 132.752C466.236 132.752 466.236 132.752 466.236 132.752C466.236 132.752 466.236 132.752 466.236 132.752C466.236 132.752 466.236 132.752 466.236 132.752C466.236 132.752 466.236 132.752 466.236 132.752C466.236 132.752 466.236 132.752 466.236 132.752C466.236 132.752 466.236 132.752 466.236 132.752C466.236 132.752 466.236 132.752 466.236 132.752C466.236 132.752 466.236 132.752 466.236 132.752C466.236 132.752 466.236 132.752 466.236 132.752C466.236 132.752 466.236 132.752 466.236 132.753C466.236 132.753 466.236 132.753 466.236 132.753C466.236 132.753 466.236 132.753 466.236 132.753C466.236 132.753 466.236 132.753 466.236 132.753C466.236 132.753 466.236 132.753 466.236 132.753C466.236 132.753 466.236 132.753 466.236 132.753C466.236 132.753 466.236 132.753 466.236 132.753C466.236 132.753 466.236 132.753 466.236 132.753C466.236 132.753 466.236 132.753 466.236 132.753C466.236 132.753 466.236 132.753 466.236 132.753C466.236 132.753 466.236 132.753 466.236 132.753C466.236 132.753 466.236 132.753 466.236 132.753C466.236 132.753 466.236 132.753 466.236 132.753C466.236 132.753 466.236 132.753 466.236 132.753C466.236 132.753 466.236 132.753 466.236 132.753C466.236 132.753 466.236 132.753 466.236 132.753C466.236 132.753 466.236 132.753 466.236 132.753C466.236 132.753 466.236 132.753 466.236 132.753C466.236 132.753 466.236 132.753 466.236 132.753C466.236 132.753 466.236 132.753 466.236 132.753C466.236 132.753 466.236 132.753 466.236 132.753C466.236 132.753 466.236 132.753 466.236 132.753C466.236 132.753 466.236 132.753 466.236 132.753C466.236 132.753 466.236 132.753 466.236 132.753C466.236 132.753 466.236 132.753 466.236 132.753C466.236 132.753 466.236 132.753 466.236 132.753C466.236 132.753 466.236 132.753 466.236 132.753C466.236 132.753 466.236 132.753 466.236 132.753C466.236 132.753 466.236 132.753 466.236 132.753C466.236 132.753 466.236 132.753 466.236 132.753C466.236 132.753 466.236 132.753 466.236 132.753C466.236 132.753 466.236 132.753 466.236 132.753C466.236 132.753 466.236 132.754 466.236 132.754C466.236 132.754 466.236 132.754 466.236 132.754C466.236 132.754 466.236 132.754 466.236 132.754C466.236 132.754 466.236 132.754 466.236 132.754C466.236 132.754 466.236 132.754 466.236 132.754C466.236 132.754 466.236 132.754 466.236 132.754C466.236 132.754 466.236 132.754 466.236 132.754C466.236 132.754 466.236 132.754 466.236 132.754C466.236 132.754 466.236 132.754 466.236 132.754C466.236 132.754 466.236 132.754 466.236 132.754C466.236 132.754 466.236 132.754 466.236 132.754C466.236 132.754 466.236 132.754 466.236 132.754C466.236 132.754 466.236 132.754 466.236 132.754C466.236 132.754 466.236 132.754 466.236 132.754C466.236 132.754 466.236 132.754 466.236 132.754C466.236 132.754 466.236 132.754 466.236 132.754C466.236 132.754 466.236 132.754 466.236 132.754C466.236 132.754 466.236 132.754 466.236 132.754C466.236 132.754 466.236 132.754 466.236 132.754C466.236 132.754 466.236 132.754 466.236 132.754C466.236 132.754 466.236 132.754 466.236 132.754C466.236 132.754 466.236 132.754 466.236 132.754C466.236 132.754 466.236 132.754 466.236 132.754C466.236 132.754 466.236 132.754 466.236 132.754C466.236 132.754 466.236 132.754 466.236 132.754C466.236 132.754 466.236 132.754 466.236 132.754C466.236 132.754 466.236 132.754 466.236 132.754C466.236 132.754 466.236 132.754 466.236 132.754C466.236 132.754 466.236 132.754 466.236 132.754C466.236 132.754 466.236 132.754 466.236 132.754C466.236 132.754 466.236 132.754 466.236 132.754C466.236 132.754 466.236 132.754 466.236 132.754C466.236 132.754 466.236 132.754 466.236 132.754C466.236 132.754 466.236 132.754 466.236 132.754C466.236 132.754 466.236 132.754 466.236 132.754C466.236 132.754 466.236 132.754 466.236 132.754C466.236 132.754 466.236 132.754 466.236 132.754C466.236 132.754 466.236 132.754 466.236 132.754C466.236 132.754 466.236 132.754 466.236 132.754C466.236 132.754 466.236 132.754 466.236 132.754C466.236 132.754 466.236 132.754 466.236 132.754C466.236 132.754 466.236 132.754 466.236 132.754C466.236 132.754 466.236 132.754 466.236 132.754C466.236 132.754 466.236 132.754 466.236 132.754C466.236 132.754 466.236 132.755 466.236 132.755C466.236 132.755 466.236 132.755 466.236 132.755C466.236 132.755 466.236 132.755 466.236 132.755C466.236 132.755 466.236 132.755 466.236 132.755C466.236 132.755 466.236 132.755 466.236 132.755C466.236 132.755 466.236 132.755 466.236 132.755C466.236 132.755 466.236 132.755 466.236 132.755C466.236 132.755 466.236 132.755 466.236 132.755C466.236 132.755 466.236 132.755 466.236 132.755C466.236 132.755 466.236 132.755 466.236 132.755C466.236 132.755 466.236 132.755 466.236 132.755C466.236 132.755 466.236 132.755 466.236 132.755C466.236 132.755 466.236 132.755 466.236 132.755C466.236 132.755 466.236 132.755 466.236 132.755C466.236 132.755 466.236 132.755 466.236 132.755C466.236 132.755 466.236 132.755 466.236 132.755C466.236 132.755 466.236 132.755 466.236 132.755C466.236 132.755 466.236 132.755 466.236 132.755C466.236 132.755 466.236 132.755 466.236 132.755C466.236 132.755 466.236 132.755 466.236 132.755C466.236 132.755 466.236 132.755 466.236 132.755C466.236 132.755 466.236 132.755 466.236 132.755C466.236 132.755 466.236 132.755 466.236 132.755C466.236 132.755 466.236 132.755 466.236 132.755C466.236 132.755 466.236 132.755 466.236 132.755C466.236 132.755 466.236 132.755 466.236 132.755C466.236 132.755 466.236 132.755 466.236 132.755C466.236 132.755 466.236 132.755 466.236 132.755C466.236 132.755 466.236 132.755 466.236 132.755C466.236 132.755 466.236 132.755 466.236 132.755C466.236 132.755 466.236 132.755 466.236 132.755C466.236 132.755 466.236 132.755 466.236 132.755C466.236 132.755 466.236 132.755 466.236 132.755C466.236 132.755 466.236 132.755 466.236 132.755C466.236 132.755 466.236 132.755 466.236 132.755C466.236 132.755 466.236 132.755 466.236 132.755C466.236 132.755 466.236 132.755 466.236 132.755C466.236 132.755 466.236 132.755 466.236 132.755C466.236 132.755 466.236 132.755 466.236 132.755C466.236 132.755 466.236 132.755 466.236 132.755C466.236 132.755 466.236 132.755 466.236 132.755C466.236 132.755 466.236 132.755 466.236 132.755C466.236 132.755 466.236 132.755 466.236 132.755C466.236 132.755 466.236 132.755 466.236 132.755C466.236 132.755 466.236 132.755 466.236 132.755C466.236 132.755 466.236 132.755 466.236 132.755C466.236 132.755 466.236 132.755 466.236 132.755C466.236 132.755 466.236 132.755 466.236 132.755C466.236 132.755 466.236 132.755 466.236 132.755C466.236 132.755 466.236 132.755 466.236 132.755C466.236 132.755 466.236 132.755 466.236 132.755C466.236 132.755 466.236 132.755 466.236 132.755C466.236 132.755 466.236 132.755 466.236 132.755C466.236 132.755 466.236 132.755 466.236 132.755C466.236 132.755 466.236 132.755 466.236 132.755C466.236 132.755 466.236 132.755 466.236 132.755C466.236 132.755 466.236 132.755 466.236 132.755C466.236 132.755 466.236 132.755 466.236 132.755C466.236 132.755 466.236 132.755 466.236 132.755C466.236 132.755 466.236 132.755 466.236 132.755C466.236 132.755 466.236 132.755 466.236 132.755C466.236 132.755 466.236 132.755 466.236 132.755C466.236 132.755 466.236 132.755 466.236 132.755C466.236 132.755 466.236 132.755 466.236 132.755C466.236 132.755 466.236 132.755 466.236 132.755C466.236 132.755 466.236 132.755 466.236 132.755C466.236 132.755 466.236 132.755 466.236 132.755C466.236 132.755 466.236 132.755 466.236 132.755C466.236 132.755 466.236 132.755 466.236 132.755C466.236 132.755 466.236 132.755 466.236 132.755C466.236 132.755 466.236 132.755 466.236 132.755C466.236 132.755 466.236 132.755 466.236 132.755C466.236 132.755 466.236 132.755 466.236 132.755C466.236 132.755 466.236 132.755 466.236 132.755C466.236 132.755 466.236 132.755 466.236 132.755C466.236 132.755 466.236 132.755 466.236 132.755C466.236 132.755 466.236 132.755 488.236 132.755C510.236 132.755 510.236 132.755 510.236 132.755C510.236 132.755 510.236 132.755 510.236 132.755C510.236 132.755 510.236 132.755 510.236 132.755C510.236 132.755 510.236 132.755 510.236 132.755C510.236 132.755 510.236 132.755 510.236 132.755C510.236 132.755 510.236 132.755 510.236 132.755C510.236 132.755 510.236 132.755 510.236 132.755C510.236 132.755 510.236 132.755 510.236 132.755C510.236 132.755 510.236 132.755 510.236 132.755C510.236 132.755 510.236 132.755 510.236 132.755C510.236 132.755 510.236 132.755 510.236 132.755C510.236 132.755 510.236 132.755 510.236 132.755C510.236 132.755 510.236 132.755 510.236 132.755C510.236 132.755 510.236 132.755 510.236 132.755C510.236 132.755 510.236 132.755 510.236 132.755C510.236 132.755 510.236 132.755 510.236 132.755C510.236 132.755 510.236 132.755 510.236 132.755C510.236 132.755 510.236 132.755 510.236 132.755C510.236 132.755 510.236 132.755 510.236 132.755C510.236 132.755 510.236 132.755 510.236 132.755C510.236 132.755 510.236 132.755 510.236 132.755C510.236 132.755 510.236 132.755 510.236 132.755C510.236 132.755 510.236 132.755 510.236 132.755C510.236 132.755 510.236 132.755 510.236 132.755C510.236 132.755 510.236 132.755 510.236 132.755C510.236 132.755 510.236 132.755 510.236 132.755C510.236 132.755 510.236 132.755 510.236 132.755C510.236 132.755 510.236 132.755 510.236 132.755C510.236 132.755 510.236 132.755 510.236 132.755C510.236 132.755 510.236 132.755 510.236 132.755C510.236 132.755 510.236 132.755 510.236 132.755C510.236 132.755 510.236 132.755 510.236 132.755C510.236 132.755 510.236 132.755 510.236 132.755C510.236 132.755 510.236 132.755 510.236 132.755C510.236 132.755 510.236 132.755 510.236 132.755C510.236 132.755 510.236 132.755 510.236 132.755C510.236 132.755 510.236 132.755 510.236 132.755C510.236 132.755 510.236 132.755 510.236 132.755C510.236 132.755 510.236 132.755 510.236 132.755C510.236 132.755 510.236 132.755 510.236 132.755C510.236 132.755 510.236 132.755 510.236 132.755C510.236 132.755 510.236 132.755 510.236 132.755C510.236 132.755 510.236 132.755 510.236 132.755C510.236 132.755 510.236 132.755 510.236 132.755C510.236 132.755 510.236 132.755 510.236 132.755C510.236 132.755 510.236 132.755 510.236 132.755C510.236 132.755 510.236 132.755 510.236 132.755C510.236 132.755 510.236 132.755 510.236 132.755C510.236 132.755 510.236 132.755 510.236 132.755C510.236 132.755 510.236 132.755 510.236 132.755C510.236 132.755 510.236 132.755 510.236 132.755C510.236 132.755 510.236 132.755 510.236 132.755C510.236 132.755 510.236 132.755 510.236 132.755C510.236 132.755 510.236 132.755 510.236 132.755C510.236 132.755 510.236 132.755 510.236 132.755C510.236 132.755 510.236 132.755 510.236 132.755C510.236 132.755 510.236 132.755 510.236 132.755C510.236 132.755 510.236 132.755 510.236 132.755C510.236 132.755 510.236 132.755 510.236 132.755C510.236 132.755 510.236 132.755 510.236 132.755C510.236 132.755 510.236 132.755 510.236 132.755C510.236 132.755 510.236 132.755 510.236 132.755C510.236 132.755 510.236 132.755 510.236 132.755C510.236 132.755 510.236 132.755 510.236 132.755C510.236 132.755 510.236 132.755 510.236 132.755C510.236 132.755 510.236 132.755 510.236 132.755C510.236 132.755 510.236 132.755 510.236 132.755C510.236 132.755 510.236 132.755 510.236 132.755C510.236 132.755 510.236 132.755 510.236 132.755C510.236 132.755 510.236 132.755 510.236 132.755C510.236 132.755 510.236 132.755 510.236 132.755C510.236 132.755 510.236 132.755 510.236 132.755C510.236 132.755 510.236 132.755 510.236 132.755C510.236 132.755 510.236 132.755 510.236 132.755C510.236 132.755 510.236 132.755 510.236 132.755C510.236 132.755 510.236 132.755 510.236 132.755C510.236 132.755 510.236 132.754 510.236 132.754C510.236 132.754 510.236 132.754 510.236 132.754C510.236 132.754 510.236 132.754 510.236 132.754C510.236 132.754 510.236 132.754 510.236 132.754C510.236 132.754 510.236 132.754 510.236 132.754C510.236 132.754 510.236 132.754 510.236 132.754C510.236 132.754 510.236 132.754 510.236 132.754C510.236 132.754 510.236 132.754 510.236 132.754C510.236 132.754 510.236 132.754 510.236 132.754C510.236 132.754 510.236 132.754 510.236 132.754C510.236 132.754 510.236 132.754 510.236 132.754C510.236 132.754 510.236 132.754 510.236 132.754C510.236 132.754 510.236 132.754 510.236 132.754C510.236 132.754 510.236 132.754 510.236 132.754C510.236 132.754 510.236 132.754 510.236 132.754C510.236 132.754 510.236 132.754 510.236 132.754C510.236 132.754 510.236 132.754 510.236 132.754C510.236 132.754 510.236 132.754 510.236 132.754C510.236 132.754 510.236 132.754 510.236 132.754C510.236 132.754 510.236 132.754 510.236 132.754C510.236 132.754 510.236 132.754 510.236 132.754C510.236 132.754 510.236 132.754 510.236 132.754C510.236 132.754 510.236 132.754 510.236 132.754C510.236 132.754 510.236 132.754 510.236 132.754C510.236 132.754 510.236 132.754 510.236 132.754C510.236 132.754 510.236 132.754 510.236 132.754C510.236 132.754 510.236 132.754 510.236 132.754C510.236 132.754 510.236 132.754 510.236 132.754C510.236 132.754 510.236 132.754 510.236 132.754C510.236 132.754 510.236 132.754 510.236 132.754C510.236 132.754 510.236 132.754 510.236 132.754C510.236 132.754 510.236 132.754 510.236 132.754C510.236 132.754 510.236 132.754 510.236 132.754C510.236 132.754 510.236 132.754 510.236 132.754C510.236 132.754 510.236 132.754 510.236 132.754C510.236 132.754 510.236 132.754 510.236 132.754C510.236 132.754 510.236 132.754 510.236 132.754C510.236 132.754 510.236 132.754 510.236 132.754C510.236 132.754 510.236 132.754 510.236 132.754C510.236 132.754 510.236 132.754 510.236 132.754C510.236 132.754 510.236 132.754 510.236 132.754C510.236 132.754 510.236 132.754 510.236 132.754C510.236 132.754 510.236 132.754 510.236 132.754C510.236 132.754 510.236 132.754 510.236 132.754C510.236 132.754 510.236 132.753 510.236 132.753C510.236 132.753 510.236 132.753 510.236 132.753C510.236 132.753 510.236 132.753 510.236 132.753C510.236 132.753 510.236 132.753 510.236 132.753C510.236 132.753 510.236 132.753 510.236 132.753C510.236 132.753 510.236 132.753 510.236 132.753C510.236 132.753 510.236 132.753 510.236 132.753C510.236 132.753 510.236 132.753 510.236 132.753C510.236 132.753 510.236 132.753 510.236 132.753C510.236 132.753 510.236 132.753 510.236 132.753C510.236 132.753 510.236 132.753 510.236 132.753C510.236 132.753 510.236 132.753 510.236 132.753C510.236 132.753 510.236 132.753 510.236 132.753C510.236 132.753 510.236 132.753 510.236 132.753C510.236 132.753 510.236 132.753 510.236 132.753C510.236 132.753 510.236 132.753 510.236 132.753C510.236 132.753 510.236 132.753 510.236 132.753C510.236 132.753 510.236 132.753 510.236 132.753C510.236 132.753 510.236 132.753 510.236 132.753C510.236 132.753 510.236 132.753 510.236 132.753C510.236 132.753 510.236 132.753 510.236 132.753C510.236 132.753 510.236 132.753 510.236 132.753C510.236 132.753 510.236 132.753 510.236 132.753C510.236 132.753 510.236 132.753 510.236 132.753C510.236 132.753 510.236 132.753 510.236 132.753C510.236 132.753 510.236 132.753 510.236 132.753C510.236 132.753 510.236 132.753 510.236 132.753C510.236 132.753 510.236 132.753 510.236 132.753C510.236 132.753 510.236 132.753 510.236 132.753C510.236 132.753 510.236 132.753 510.236 132.753C510.236 132.753 510.236 132.753 510.236 132.753C510.236 132.753 510.236 132.753 510.236 132.753C510.236 132.752 510.236 132.752 510.236 132.752C510.236 132.752 510.236 132.752 510.236 132.752C510.236 132.752 510.236 132.752 510.236 132.752C510.236 132.752 510.236 132.752 510.236 132.752C510.236 132.752 510.236 132.752 510.236 132.752C510.236 132.752 510.236 132.752 510.236 132.752C510.236 132.752 510.236 132.752 510.236 132.752C510.236 132.752 510.236 132.752 510.236 132.752C510.236 132.752 510.236 132.752 510.236 132.752C510.236 132.752 510.236 132.752 510.236 132.752C510.236 132.752 510.236 132.752 510.236 132.752C510.236 132.752 510.236 132.752 510.236 132.752C510.236 132.752 510.236 132.752 510.236 132.752C510.236 132.752 510.236 132.752 510.236 132.752C510.236 132.752 510.236 132.752 510.236 132.752C510.236 132.752 510.236 132.752 510.236 132.752C510.236 132.752 510.236 132.752 510.236 132.752C510.236 132.752 510.236 132.752 510.236 132.752C510.236 132.752 510.236 132.752 510.236 132.752C510.236 132.752 510.236 132.752 510.236 132.752C510.236 132.752 510.236 132.752 510.236 132.752C510.236 132.752 510.236 132.752 510.236 132.752C510.236 132.752 510.236 132.752 510.236 132.752C510.236 132.752 510.236 132.752 510.236 132.752C510.236 132.752 510.236 132.752 510.236 132.752C510.236 132.752 510.236 132.752 510.236 132.752C510.236 132.752 510.236 132.751 510.236 132.751C510.236 132.751 510.236 132.751 510.236 132.751C510.236 132.751 510.236 132.751 510.236 132.751C510.236 132.751 510.236 132.751 510.236 132.751C510.236 132.751 510.236 132.751 510.236 132.751C510.236 132.751 510.236 132.751 510.236 132.751C510.236 132.751 510.236 132.751 510.236 132.751C510.236 132.751 510.236 132.751 510.236 132.751C510.236 132.751 510.236 132.751 510.236 132.751C510.236 132.751 510.236 132.751 510.236 132.751C510.236 132.751 510.236 132.751 510.236 132.751C510.236 132.751 510.236 132.751 510.236 132.751C510.236 132.751 510.236 132.751 510.236 132.751C510.236 132.751 510.236 132.751 510.236 132.751C510.236 132.751 510.236 132.751 510.236 132.751C510.236 132.751 510.236 132.751 510.236 132.751C510.236 132.751 510.236 132.751 510.236 132.751C510.236 132.751 510.236 132.751 510.236 132.751C510.236 132.751 510.236 132.751 510.236 132.751C510.236 132.751 510.236 132.751 510.236 132.751C510.236 132.751 510.236 132.751 510.236 132.751C510.236 132.751 510.236 132.751 510.236 132.751C510.236 132.751 510.236 132.751 510.236 132.751C510.236 132.75 510.236 132.75 510.236 132.75C510.236 132.75 510.236 132.75 510.236 132.75C510.236 132.75 510.236 132.75 510.236 132.75C510.236 132.75 510.236 132.75 510.236 132.75C510.236 132.75 510.236 132.75 510.236 132.75C510.236 132.75 510.236 132.75 510.236 132.75C510.236 132.75 510.236 132.75 510.236 132.75C510.236 132.75 510.236 132.75 510.236 132.75C510.236 132.75 510.236 132.75 510.236 132.75C510.236 132.75 510.236 132.75 510.236 132.75C510.236 132.75 510.236 132.75 510.236 132.75C510.236 132.75 510.236 132.75 510.236 132.75C510.236 132.75 510.236 132.75 510.236 132.75C510.236 132.75 510.236 132.75 510.236 132.75C510.236 132.75 510.236 132.75 510.236 132.75C510.236 132.75 510.236 132.75 510.236 132.75C510.236 132.75 510.236 132.75 510.236 132.75C510.236 132.75 510.236 132.75 510.236 132.75C510.236 132.75 510.236 132.75 510.236 132.75C510.236 132.75 510.236 132.75 510.236 132.75C510.236 132.75 510.236 132.749 510.236 132.749C510.236 132.749 510.236 132.749 510.236 132.749C510.236 132.749 510.236 132.749 510.236 132.749C510.236 132.749 510.236 132.749 510.236 132.749C510.236 132.749 510.236 132.749 510.236 132.749C510.236 132.749 510.236 132.749 510.236 132.749C510.236 132.749 510.236 132.749 510.236 132.749C510.236 132.749 510.236 132.749 510.236 132.749C510.236 132.749 510.236 132.749 510.236 132.749C510.236 132.749 510.236 132.749 510.236 132.749C510.236 132.749 510.236 132.749 510.236 132.749C510.236 132.749 510.236 132.749 510.236 132.749C510.236 132.749 510.236 132.749 510.236 132.749C510.236 132.749 510.236 132.749 510.236 132.749C510.236 132.749 510.236 132.749 510.236 132.749C510.236 132.749 510.236 132.749 510.236 132.749C510.236 132.749 510.236 132.749 510.236 132.749C510.236 132.749 510.236 132.749 510.236 132.749C510.236 132.749 510.236 132.749 510.236 132.749C510.236 132.749 510.236 132.748 510.236 132.748C510.236 132.748 510.236 132.748 510.236 132.748C510.236 132.748 510.236 132.748 510.236 132.748C510.236 132.748 510.236 132.748 510.236 132.748C510.236 132.748 510.236 132.748 510.236 132.748C510.236 132.748 510.236 132.748 510.236 132.748C510.236 132.748 510.236 132.748 510.236 132.748C510.236 132.748 510.236 132.748 510.236 132.748C510.236 132.748 510.236 132.748 510.236 132.748C510.236 132.748 510.236 132.748 510.236 132.748C510.236 132.748 510.236 132.748 510.236 132.748C510.236 132.748 510.236 132.748 510.236 132.748C510.236 132.748 510.236 132.748 510.236 132.748C510.236 132.748 510.236 132.748 510.236 132.748C510.236 132.748 510.236 132.748 510.236 132.748C510.236 132.748 510.236 132.748 510.236 132.748C510.236 132.748 510.236 132.748 510.236 132.748C510.236 132.748 510.236 132.748 510.236 132.747C510.236 132.747 510.236 132.747 510.236 132.747C510.236 132.747 510.236 132.747 510.236 132.747C510.236 132.747 510.236 132.747 510.236 132.747C510.236 132.747 510.236 132.747 510.236 132.747C510.236 132.747 510.236 132.747 510.236 132.747C510.236 132.747 510.236 132.747 510.236 132.747C510.236 132.747 510.236 132.747 510.236 132.747C510.236 132.747 510.236 132.747 510.236 132.747C510.236 132.747 510.236 132.747 510.236 132.747C510.236 132.747 510.236 132.747 510.236 132.747C510.236 132.747 510.236 132.747 510.236 132.747C510.236 132.747 510.236 132.747 510.236 132.747C510.236 132.747 510.236 132.747 510.236 132.747C510.236 132.747 510.236 132.747 510.236 132.747C510.236 132.747 510.236 132.747 510.236 132.747C510.236 132.747 510.236 132.747 510.236 132.747C510.236 132.746 510.236 132.746 510.236 132.746C510.236 132.746 510.236 132.746 510.236 132.746C510.236 132.746 510.236 132.746 510.236 132.746C510.236 132.746 510.236 132.746 510.236 132.746C510.236 132.746 510.236 132.746 510.236 132.746C510.236 132.746 510.236 132.746 510.236 132.746C510.236 132.746 510.236 132.746 510.236 132.746C510.236 132.746 510.236 132.746 510.236 132.746C510.236 132.746 510.236 132.746 510.236 132.746C510.236 132.746 510.236 132.746 510.236 132.746C510.236 132.746 510.236 132.746 510.236 132.746C510.236 132.746 510.236 132.746 510.236 132.746C510.236 132.746 510.236 132.746 510.236 132.746C510.236 132.746 510.236 132.746 510.236 132.746C510.236 132.746 510.236 132.746 510.236 132.746C510.236 132.746 510.236 132.745 510.236 132.745C510.236 132.745 510.236 132.745 510.236 132.745C510.236 132.745 510.236 132.745 510.236 132.745C510.236 132.745 510.236 132.745 510.236 132.745C510.236 132.745 510.236 132.745 510.236 132.745C510.236 132.745 510.236 132.745 510.236 132.745C510.236 132.745 510.236 132.745 510.236 132.745C510.236 132.745 510.236 132.745 510.236 132.745C510.236 132.745 510.236 132.745 510.236 132.745C510.236 132.745 510.236 132.745 510.236 132.745C510.236 132.745 510.236 132.745 510.236 132.745C510.236 132.745 510.236 132.745 510.236 132.745C510.236 132.745 510.236 132.745 510.236 132.745C510.236 132.745 510.236 132.745 510.236 132.745C510.236 132.745 510.236 132.745 510.236 132.744C510.236 132.744 510.236 132.744 510.236 132.744C510.236 132.744 510.236 132.744 510.236 132.744C510.236 132.744 510.236 132.744 510.236 132.744C510.236 132.744 510.236 132.744 510.236 132.744C510.236 132.744 510.236 132.744 510.236 132.744C510.236 132.744 510.236 132.744 510.236 132.744C510.236 132.744 510.236 132.744 510.236 132.744C510.236 132.744 510.236 132.744 510.236 132.744C510.236 132.744 510.236 132.744 510.236 132.744C510.236 132.744 510.236 132.744 510.236 132.744C510.236 132.744 510.236 132.744 510.236 132.744C510.236 132.744 510.236 132.744 510.236 132.744C510.236 132.744 510.236 132.744 510.236 132.744C510.236 132.744 510.236 132.744 510.236 132.743C510.236 132.743 510.236 132.743 510.236 132.743C510.236 132.743 510.236 132.743 510.236 132.743C510.236 132.743 510.236 132.743 510.236 132.743C510.236 132.743 510.236 132.743 510.236 132.743C510.236 132.743 510.236 132.743 510.236 132.743C510.236 132.743 510.236 132.743 510.236 132.743C510.236 132.743 510.236 132.743 510.236 132.743C510.236 132.743 510.236 132.743 510.236 132.743C510.236 132.743 510.236 132.743 510.236 132.743C510.236 132.743 510.236 132.743 510.236 132.743C510.236 132.743 510.236 132.743 510.236 132.743C510.236 132.743 510.236 132.743 510.236 132.743C510.236 132.743 510.236 132.743 510.236 132.743C510.236 132.742 510.236 132.742 510.236 132.742C510.236 132.742 510.236 132.742 510.236 132.742C510.236 132.742 510.236 132.742 510.236 132.742C510.236 132.742 510.236 132.742 510.236 132.742C510.236 132.742 510.236 132.742 510.236 132.742C510.236 132.742 510.236 132.742 510.236 132.742C510.236 132.742 510.236 132.742 510.236 132.742C510.236 132.742 510.236 132.742 510.236 132.742C510.236 132.742 510.236 132.742 510.236 132.742C510.236 132.742 510.236 132.742 510.236 132.742C510.236 132.742 510.236 132.742 510.236 132.742C510.236 132.742 510.236 132.742 510.236 132.742C510.236 132.742 510.236 132.742 510.236 132.742C510.236 132.741 510.236 132.741 510.236 132.741C510.236 132.741 510.236 132.741 510.236 132.741C510.236 132.741 510.236 132.741 510.236 132.741C510.236 132.741 510.236 132.741 510.236 132.741C510.236 132.741 510.236 132.741 510.236 132.741C510.236 132.741 510.236 132.741 510.236 132.741C510.236 132.741 510.236 132.741 510.236 132.741C510.236 132.741 510.236 132.741 510.236 132.741C510.236 132.741 510.236 132.741 510.236 132.741C510.236 132.741 510.236 132.741 510.236 132.741C510.236 132.741 510.236 132.741 510.236 132.741C510.236 132.741 510.236 132.741 510.236 132.741C510.236 132.741 510.236 132.74 510.236 132.74C510.236 132.74 510.236 132.74 510.236 132.74C510.236 132.74 510.236 132.74 510.236 132.74C510.236 132.74 510.236 132.74 510.236 132.74C510.236 132.74 510.236 132.74 510.236 132.74C510.236 132.74 510.236 132.74 510.236 132.74C510.236 132.74 510.236 132.74 510.236 132.74C510.236 132.74 510.236 132.74 510.236 132.74C510.236 132.74 510.236 132.74 510.236 132.74C510.236 132.74 510.236 132.74 510.236 132.74C510.236 132.74 510.236 132.74 510.236 132.74C510.236 132.74 510.236 132.74 510.236 132.74C510.236 132.739 510.236 132.739 510.236 132.739C510.236 132.739 510.236 132.739 510.236 132.739C510.236 132.739 510.236 132.739 510.236 132.739C510.236 132.739 510.236 132.739 510.236 132.739C510.236 132.739 510.236 132.739 510.236 132.739C510.236 132.739 510.236 132.739 510.236 132.739C510.236 132.739 510.236 132.739 510.236 132.739C510.236 132.739 510.236 132.739 510.236 132.739C510.236 132.739 510.236 132.739 510.236 132.739C510.236 132.739 510.236 132.739 510.236 132.739C510.236 132.739 510.236 132.739 510.236 132.739C510.236 132.739 510.236 132.739 510.236 132.738C510.236 132.738 510.236 132.738 510.236 132.738C510.236 132.738 510.236 132.738 510.236 132.738C510.236 132.738 510.236 132.738 510.236 132.738C510.236 132.738 510.236 132.738 510.236 132.738C510.236 132.738 510.236 132.738 510.236 132.738C510.236 132.738 510.236 132.738 510.236 132.738C510.236 132.738 510.236 132.738 510.236 132.738C510.236 132.738 510.236 132.738 510.236 132.738C510.236 132.738 510.236 132.738 510.236 132.738C510.236 132.738 510.236 132.738 510.236 132.738C510.236 132.738 510.236 132.738 510.236 132.738C510.236 132.737 510.236 132.737 510.236 132.737C510.236 132.737 510.236 132.737 510.236 132.737C510.236 132.737 510.236 132.737 510.236 132.737C510.236 132.737 510.236 132.737 510.236 132.737C510.236 132.737 510.236 132.737 510.236 132.737C510.236 132.737 510.236 132.737 510.236 132.737C510.236 132.737 510.236 132.737 510.236 132.737C510.236 132.737 510.236 132.737 510.236 132.737C510.236 132.737 510.236 132.737 510.236 132.737C510.236 132.737 510.236 132.737 510.236 132.737C510.236 132.737 510.236 132.737 510.236 132.736C510.236 132.736 510.236 132.736 510.236 132.736C510.236 132.736 510.236 132.736 510.236 132.736C510.236 132.736 510.236 132.736 510.236 132.736C510.236 132.736 510.236 132.736 510.236 132.736C510.236 132.736 510.236 132.736 510.236 132.736C510.236 132.736 510.236 132.736 510.236 132.736C510.236 132.736 510.236 132.736 510.236 132.736C510.236 132.736 510.236 132.736 510.236 132.736C510.236 132.736 510.236 132.736 510.236 132.736C510.236 132.736 510.236 132.736 510.236 132.736C510.236 132.736 510.236 132.735 510.236 132.735C510.236 132.735 510.236 132.735 510.236 132.735C510.236 132.735 510.236 132.735 510.236 132.735C510.236 132.735 510.236 132.735 510.236 132.735C510.236 132.735 510.236 132.735 510.236 132.735C510.236 132.735 510.236 132.735 510.236 132.735C510.236 132.735 510.236 132.735 510.236 132.735C510.236 132.735 510.236 132.735 510.236 132.735C510.236 132.735 510.236 132.735 510.236 132.735C510.236 132.735 510.236 132.735 510.236 132.735C510.236 132.735 510.236 132.735 510.236 132.734C510.236 132.734 510.236 132.734 510.236 132.734C510.236 132.734 510.236 132.734 510.236 132.734C510.236 132.734 510.236 132.734 510.236 132.734C510.236 132.734 510.236 132.734 510.236 132.734C510.236 132.734 510.236 132.734 510.236 132.734C510.236 132.734 510.236 132.734 510.236 132.734C510.236 132.734 510.236 132.734 510.236 132.734C510.236 132.734 510.236 132.734 510.236 132.734C510.236 132.734 510.236 132.734 510.236 132.734C510.236 132.734 510.236 132.734 510.236 132.734C510.236 132.733 510.236 132.733 510.236 132.733C510.236 132.733 510.236 132.733 510.236 132.733C510.236 132.733 510.236 132.733 510.236 132.733C510.236 132.733 510.236 132.733 510.236 132.733C510.236 132.733 510.236 132.733 510.236 132.733C510.236 132.733 510.236 132.733 510.236 132.733C510.236 132.733 510.236 132.733 510.236 132.733C510.236 132.733 510.236 132.733 510.236 132.733C510.236 132.733 510.236 132.733 510.236 132.733C510.236 132.733 510.236 132.733 510.236 132.732C510.236 132.732 510.236 132.732 510.236 132.732C510.236 132.732 510.236 132.732 510.236 132.732C510.236 132.732 510.236 132.732 510.236 132.732C510.236 132.732 510.236 132.732 510.236 132.732C510.236 132.732 510.236 132.732 510.236 132.732C510.236 132.732 510.236 132.732 510.236 132.732C510.236 132.732 510.236 132.732 510.236 132.732C510.236 132.732 510.236 132.732 510.236 132.732C510.236 132.732 510.236 132.732 510.236 132.732C510.236 132.732 510.236 132.731 510.236 132.731C510.236 132.731 510.236 132.731 510.236 132.731C510.236 132.731 510.236 132.731 510.236 132.731C510.236 132.731 510.236 132.731 510.236 132.731C510.236 132.731 510.236 132.731 510.236 132.731C510.236 132.731 510.236 132.731 510.236 132.731C510.236 132.731 510.236 132.731 510.236 132.731C510.236 132.731 510.236 132.731 510.236 132.731C510.236 132.731 510.236 132.731 510.236 132.731C510.236 132.731 510.236 132.731 510.236 132.731C510.236 132.73 510.236 132.73 510.236 132.73C510.236 132.73 510.236 132.73 510.236 132.73C510.236 132.73 510.236 132.73 510.236 132.73C510.236 132.73 510.236 132.73 510.236 132.73C510.236 132.73 510.236 132.73 510.236 132.73C510.236 132.73 510.236 132.73 510.236 132.73C510.236 132.73 510.236 132.73 510.236 132.73C510.236 132.73 510.236 132.73 510.236 132.73C510.236 132.73 510.236 132.73 510.236 132.73C510.236 132.73 510.236 132.729 510.236 132.729C510.236 132.729 510.236 132.729 510.236 132.729C510.236 132.729 510.236 132.729 510.236 132.729C510.236 132.729 510.236 132.729 510.236 132.729C510.236 132.729 510.236 132.729 510.236 132.729C510.236 132.729 510.236 132.729 510.236 132.729C510.236 132.729 510.236 132.729 510.236 132.729C510.236 132.729 510.236 132.729 510.236 132.729C510.236 132.729 510.236 132.729 510.236 132.729C510.236 132.729 510.236 132.728 510.236 132.728C510.236 132.728 510.236 132.728 510.236 132.728C510.236 132.728 510.236 132.728 510.236 132.728C510.236 132.728 510.236 132.728 510.236 132.728C510.236 132.728 510.236 132.728 510.236 132.728C510.236 132.728 510.236 132.728 510.236 132.728C510.236 132.728 510.236 132.728 510.236 132.728C510.236 132.728 510.236 132.728 510.236 132.728C510.236 132.728 510.236 132.728 510.236 132.728C510.236 132.728 510.236 132.727 510.236 132.727C510.236 132.727 510.236 132.727 510.236 132.727C510.236 132.727 510.236 132.727 510.236 132.727C510.236 132.727 510.236 132.727 510.236 132.727C510.236 132.727 510.236 132.727 510.236 132.727C510.236 132.727 510.236 132.727 510.236 132.727C510.236 132.727 510.236 132.727 510.236 132.727C510.236 132.727 510.236 132.727 510.236 132.727C510.236 132.727 510.236 132.727 510.236 132.727C510.236 132.726 510.236 132.726 510.236 132.726C510.236 132.726 510.236 132.726 510.236 132.726C510.236 132.726 510.236 132.726 510.236 132.726C510.236 132.726 510.236 132.726 510.236 132.726C510.236 132.726 510.236 132.726 510.236 132.726C510.236 132.726 510.236 132.726 510.236 132.726C510.236 132.726 510.236 132.726 510.236 132.726C510.236 132.726 510.236 132.726 510.236 132.726C510.236 132.726 510.236 132.726 510.236 132.725C510.236 132.725 510.236 132.725 510.236 132.725C510.236 132.725 510.236 132.725 510.236 132.725C510.236 132.725 510.236 132.725 510.236 132.725C510.236 132.725 510.236 132.725 510.236 132.725C510.236 132.725 510.236 132.725 510.236 132.725H488.236ZM488.236 132.755L466.372 130.316C466.238 131.519 465.216 134.658 459.392 138.287C453.653 141.863 445.372 144.376 436.677 144.604L437.252 166.596L437.827 188.589C453.459 188.18 469.551 183.8 482.663 175.63C495.69 167.511 507.998 154.048 510.101 135.194L488.236 132.755ZM437.252 166.596L436.257 144.619C394.285 146.52 351.998 146.025 309.391 143.132L307.9 165.081L306.41 187.031C350.646 190.035 394.593 190.551 438.247 188.574L437.252 166.596ZM307.9 165.081L309.361 143.13C300.561 142.544 290.511 139.16 282.527 133.953C274.14 128.482 271.261 123.252 270.776 120.702L249.164 124.818L227.552 128.933C231.163 147.894 244.907 161.947 258.49 170.807C272.477 179.93 289.747 185.922 306.439 187.033L307.9 165.081ZM249.164 124.818L270.859 128.467C271.811 122.811 276.408 114.588 285.168 106.766C293.789 99.07 303.625 94.3174 311.131 93.1922L307.869 71.4353L304.607 49.6785C286.651 52.3706 269.199 62.0391 255.865 73.9444C242.67 85.725 230.645 102.284 227.469 121.168L249.164 124.818Z" fill="black" mask="url(#path-6-inside-1_481_896)"/>
</svg>
